<svg id="Calque_1" data-name="Calque 1" xmlns="http://www.w3.org/2000/svg" viewBox="0 0 27.37 35.21"><title>logoInstructif</title><path d="M280,239.76a19.37,19.37,0,0,1,2.43,2.61,1,1,0,0,0,1.47.2,1.05,1.05,0,0,0,.2-1.47,20.7,20.7,0,0,0-2.7-2.91,1.05,1.05,0,1,0-1.4,1.57Z" transform="translate(-279.65 -233.81)" style="fill:#59368c"/><path d="M294.44,238.51a18.7,18.7,0,0,1-.12-2.12c0-.48,0-1,.06-1.45a1.05,1.05,0,0,0-2.1-.16c0,.53-.06,1.07-.06,1.61a20.61,20.61,0,0,0,.13,2.36,1.05,1.05,0,1,0,2.09-.24Z" transform="translate(-279.65 -233.81)" style="fill:#59368c"/><path d="M305.27,238.19a20.12,20.12,0,0,0-2.7,2.91,1.05,1.05,0,0,0,1.67,1.28,18.28,18.28,0,0,1,2.43-2.62,1.06,1.06,0,0,0,.08-1.49,1,1,0,0,0-1.48-.08Z" transform="translate(-279.65 -233.81)" style="fill:#59368c"/><path d="M300.68,256.15a6.74,6.74,0,0,0,2-4.56,9.34,9.34,0,1,0-18.68,0,6.8,6.8,0,0,0,2,4.56,14.52,14.52,0,0,1,2.58,3.24l.1.67c0,1.27-.65,3.45-.67,5.27a3.15,3.15,0,0,0,.78,2.33c1.16,1.07,2.9,1.32,4.68,1.36a9.71,9.71,0,0,0,2.44-.29,3.85,3.85,0,0,0,2-1.15,3.39,3.39,0,0,0,.64-2.23c0-1.8-.64-3.93-.62-5.21a1.89,1.89,0,0,1,.11-.74A15.55,15.55,0,0,1,300.68,256.15Zm-4.49,2.33a3.75,3.75,0,0,0-.32,1.66,15.94,15.94,0,0,0,.3,2.62h-5.66a17.15,17.15,0,0,0,.33-2.7,3.62,3.62,0,0,0-.29-1.57,16.29,16.29,0,0,0-2.91-3.74,4.64,4.64,0,0,1-1.51-3.16,7.24,7.24,0,1,1,14.47,0,4.69,4.69,0,0,1-1.5,3.17A16.88,16.88,0,0,0,296.19,258.48Z" transform="translate(-279.65 -233.81)" style="fill:#59368c"/></svg>