<svg id="Calque_3" data-name="Calque 3" xmlns="http://www.w3.org/2000/svg" viewBox="0 0 29.74 23.79"><title>logoCommenter</title><path d="M337.52,264.76a24.25,24.25,0,0,1-3.18-.2,11.26,11.26,0,0,1-7.33-4.45,11.69,11.69,0,0,1-2.4-8.6c.76-5.54,5.92-10.15,11.73-10.5,7-.41,11.1,2.05,12.72,7.55a17.56,17.56,0,0,1,.52,4.35c.12,3,.23,5.87,3,8.43l1.65,1.51L352,263c-1.76.15-3.57.44-5.49.75A56.44,56.44,0,0,1,337.52,264.76Zm.34-21.83c-.45,0-.92,0-1.4,0a10.77,10.77,0,0,0-9.91,8.81,9.77,9.77,0,0,0,2,7.15,9.26,9.26,0,0,0,6,3.68c3.81.51,7.77-.13,11.61-.75,1.27-.21,2.5-.41,3.7-.56-2.07-2.73-2.19-5.67-2.29-8.31a16.16,16.16,0,0,0-.44-3.88C345.93,244.87,343,242.93,337.86,242.93Z" transform="translate(-324.51 -240.97)" style="fill:#59368c"/></svg>