<svg id="Calque_1" data-name="Calque 1" xmlns="http://www.w3.org/2000/svg" viewBox="0 0 661.8 199.42"><title>LogoHele</title><path d="M199.07,349.38c16.43,5.21,26.85,9.12,58.92,9.91,2,0,3.85.1,5.63.18a102.6,102.6,0,0,0,8.37-8.18c-26.35-5.17-52.37-5.17-70.83-15.21-24-13-37-26.85-45.88-54.74,13.81,20.59,41.71,29.72,71.17,39.89,22.93,7.91,33,10.92,51.16,23.31,1.71-2.24,3.32-4.56,4.83-6.94-11.7-8.4-24.91-15.12-40.61-21.07-56.22-21.29-78.47-58.13-90.72-94.63,33.1,12.26,123.3,61.79,134,72.74a96.61,96.61,0,0,1,10,13,98.18,98.18,0,0,0,2.67-22.83c0-55-45.2-99.58-101-99.58s-101,44.58-101,99.58,45.21,99.58,101,99.58a101.8,101.8,0,0,0,46-10.91C225,369.51,206.2,360.17,199.07,349.38Z" transform="translate(-95.86 -185.21)" style="fill:#57358a"/><path d="M151.11,221.9c12.25,36.5,34.5,73.34,90.72,94.63,15.7,6,28.91,12.67,40.61,21.07a98.22,98.22,0,0,0,12.69-30,96.61,96.61,0,0,0-10-13C274.41,283.69,184.21,234.16,151.11,221.9Z" transform="translate(-95.86 -185.21)" style="fill:#fff"/><path d="M155.28,281.34c8.86,27.89,21.9,41.71,45.88,54.74,18.46,10,44.48,10,70.83,15.21q3-3.26,5.62-6.75c-18.13-12.39-28.23-15.4-51.16-23.31C197,311.06,169.09,301.93,155.28,281.34Z" transform="translate(-95.86 -185.21)" style="fill:#fff"/><path d="M258,359.29c-32.07-.79-42.49-4.7-58.92-9.91,7.13,10.79,25.92,20.13,43.77,24.08a101.46,101.46,0,0,0,20.78-14C261.84,359.39,260,359.33,258,359.29Z" transform="translate(-95.86 -185.21)" style="fill:#fff"/><path d="M579.47,312.65q0-20.06-8.56-35.88a62.82,62.82,0,0,0-23.46-24.68,68.29,68.29,0,0,0-67.42.14,63.32,63.32,0,0,0-23.62,24.93l-.05.12a47.87,47.87,0,0,0-11.47-19q-15-15-40.91-15-19,0-33,7.78a50.47,50.47,0,0,0-21.11,22V186.26H336.7V382.05h13.2V308.69q0-24.53,14-39.05t38.26-14.51q21.11,0,32.85,12.14t11.74,35.35v79.43h13.19V353.8a65,65,0,0,0,22.22,20.33q16.1,9,36.68,9a74.12,74.12,0,0,0,29.42-5.81,58.69,58.69,0,0,0,22.53-16.62L563.14,352A48.61,48.61,0,0,1,544,366.35a63,63,0,0,1-24.94,4.88,62.25,62.25,0,0,1-29.42-6.86A52.31,52.31,0,0,1,469,345a57.58,57.58,0,0,1-8.18-28.63H579.21ZM461,306.06a59.3,59.3,0,0,1,8.05-26.52,49.24,49.24,0,0,1,18.6-18.21,52.78,52.78,0,0,1,26.13-6.46,51.2,51.2,0,0,1,44.85,24.8,55.38,55.38,0,0,1,7.9,26.39Z" transform="translate(-95.86 -185.21)" style="fill:#57358a"/><path d="M599,186.78H612.2V382.57H599Z" transform="translate(-95.86 -185.21)" style="fill:#57358a"/><path d="M757.4,317.87H638.93a57.57,57.57,0,0,0,8.17,28.63,52.34,52.34,0,0,0,20.72,19.39,62.22,62.22,0,0,0,29.42,6.86,63,63,0,0,0,24.94-4.88,48.58,48.58,0,0,0,19.12-14.38L749,362.2a58.94,58.94,0,0,1-22.56,16.62A74.17,74.17,0,0,1,697,384.63q-20.58,0-36.67-9a65,65,0,0,1-25.2-24.8Q626,335,626,314.7q0-20.06,8.58-36a63.25,63.25,0,0,1,23.62-24.93,68.27,68.27,0,0,1,67.41-.14,62.89,62.89,0,0,1,23.49,24.68q8.56,15.82,8.58,35.88Zm-91.56-55a49.24,49.24,0,0,0-18.6,18.21,59.18,59.18,0,0,0-8,26.52H744.73a55.17,55.17,0,0,0-7.91-26.39A51.23,51.23,0,0,0,692,256.39,52.77,52.77,0,0,0,665.84,262.85Z" transform="translate(-95.86 -185.21)" style="fill:#57358a"/><path d="M659.46,226.28c10.37-9.75,13-11.6,28.14-12s20.12-2.22,27.9-4.69c-4.57,6.91-19.25,12.58-29.26,12.34C675.76,221.72,670.57,221.72,659.46,226.28Z" transform="translate(-95.86 -185.21)" style="fill:#fab914"/><path d="M495.71,226.28c10.37-9.75,13-11.6,28.15-12s20.12-2.22,27.9-4.69c-4.57,6.91-19.26,12.58-29.26,12.34C512,221.72,506.82,221.72,495.71,226.28Z" transform="translate(-95.86 -185.21)" style="fill:#fab914"/></svg>