<svg id="Calque_1" data-name="Calque 1" xmlns="http://www.w3.org/2000/svg" viewBox="0 0 81.53 81.53"><title>nouveauPost</title><circle cx="40.77" cy="40.77" r="40.77" style="fill:#59368c"/><path d="M460.94,264.45c-3.84,0-7.69,0-11.53,0-3.36,0-4.66-1.25-4.67-4.5q0-11.82,0-23.63c0-3.17,1.28-4.48,4.38-4.5,5,0,9.94,0,14.91,0,.75,0,2-.36,2,.88s-1.3.78-2.08.78c-4.78,0-9.56.08-14.34,0-2.29-.05-3.19.85-3.17,3.15q.12,11.53,0,23.07c0,2.33,1,3.13,3.21,3.11,7.69-.08,15.38-.07,23.07,0,2.13,0,3.1-.79,3-3-.08-3.09,0-6.19,0-9.28,0-.71-.19-1.77.87-1.72s.8,1.09.81,1.8c0,3.28.06,6.57,0,9.85-.06,2.6-1.41,3.94-4,4C469.19,264.5,465.07,264.45,460.94,264.45Z" transform="translate(-420.94 -207.16)" style="fill:#fff;stroke:#fff;stroke-miterlimit:10;stroke-width:0.25px"/><path d="M479.51,237c2.07-2.18,1.65-4.19-.23-5.44s-3.51-.34-4.95,1.13c-3.21,3.27-6.49,6.48-9.72,9.73a23.22,23.22,0,0,0-5.34,8.47c-.22.6-.49,1.31.14,1.82s1.08,0,1.58-.19a23.35,23.35,0,0,0,8.84-5.77c2.68-2.72,5.38-5.43,8.27-8.33Z" transform="translate(-420.94 -207.16)" style="fill:#fff;stroke:#fff;stroke-miterlimit:10;stroke-width:0.25px"/><path d="M461.26,250.62c1.64-4.22,4.36-6.8,7-9.43s5.16-5.17,7.75-7.74c.74-.73,1.61-1.09,2.48-.3a1.58,1.58,0,0,1,0,2.48c-4.84,4.53-8.88,9.91-14.53,13.56C463.3,249.63,462.54,250,461.26,250.62Z" transform="translate(-420.94 -207.16)" style="fill:#59368c"/></svg>